<?xml version="1.0" encoding="utf-8"?>
<!-- Generator: Adobe Illustrator 25.2.3, SVG Export Plug-In . SVG Version: 6.00 Build 0)  -->
<svg version="1.1" id="Layer_1" xmlns="http://www.w3.org/2000/svg" xmlns:xlink="http://www.w3.org/1999/xlink" x="0px" y="0px"
	 viewBox="0 0 256 235.6" style="enable-background:new 0 0 256 235.6;" xml:space="preserve">
<style type="text/css">
	.st0{fill:#FFFFFF;}
	.st1{fill:#52AE32;}
</style>
<g>
	<g>
		<polygon class="st0" points="48.5,176.6 28.8,218.6 9,176.6 0,176.6 0,234.4 10.4,234.4 10.4,203.9 24.7,234.3 24.8,234.4 
			32.7,234.4 47.1,203.9 47.1,234.4 57.5,234.4 57.5,176.6 		"/>
		<g>
			<path class="st0" d="M123.5,205.5c0,2.7-0.5,5.3-1.5,7.6c-1,2.4-2.5,4.5-4.2,6.3c-1.8,1.8-3.9,3.2-6.3,4.2c-4.7,2-10.5,2-15.2,0
				h0c-2.4-1-4.5-2.5-6.3-4.2c-1.8-1.8-3.2-3.9-4.2-6.3c-1-2.3-1.5-4.9-1.5-7.6c0-2.7,0.5-5.3,1.5-7.6c1-2.4,2.5-4.5,4.2-6.3
				c1.8-1.8,3.9-3.2,6.3-4.2c2.3-1,4.9-1.5,7.6-1.5c2.7,0,5.3,0.5,7.6,1.5c2.4,1,4.5,2.5,6.3,4.2c1.8,1.8,3.2,3.9,4.2,6.3
				C123,200.2,123.5,202.8,123.5,205.5 M125.1,184.3c-2.7-2.7-5.9-4.9-9.5-6.4c-7.3-3.1-16.1-3.1-23.4,0c-3.6,1.6-6.8,3.7-9.5,6.4
				c-2.7,2.7-4.9,5.9-6.4,9.5c-1.6,3.6-2.4,7.6-2.4,11.7c0,4.1,0.8,8.1,2.4,11.7c1.6,3.6,3.7,6.8,6.4,9.5c2.7,2.7,5.9,4.9,9.5,6.4
				c3.6,1.6,7.6,2.4,11.7,2.4c4.1,0,8.1-0.8,11.7-2.4c3.6-1.6,6.8-3.7,9.5-6.4c2.7-2.7,4.9-5.9,6.4-9.5c1.6-3.6,2.4-7.6,2.4-11.7
				c0-4.1-0.8-8.1-2.4-11.7C130,190.2,127.8,187,125.1,184.3"/>
		</g>
		<polygon class="st0" points="187.3,176.6 169.8,199.9 152.4,176.7 152.3,176.6 139.3,176.6 164.6,210.2 164.6,234.4 175,234.4 
			175,210.2 200.3,176.6 		"/>
		<path class="st0" d="M226.6,192.9l7.1,16.4h-14.1L226.6,192.9z M222.3,176.6l-24.9,57.5l-0.2,0.4h11.4l6.4-14.8h23.3l6.4,14.8H256
			l-25-57.7l-0.1-0.1H222.3z"/>
		<g>
			<path class="st1" d="M106.7,23.2c4.6-7,10.2-13.7,14.6-19.4c0.7-1,2.9-3.5,3.2-3.7c0.7-0.4,0.7,1.2,0.7,4.4l-0.7,32.2
				c-0.2,7.6-0.2,9-5.7,3c-2.3-2.5-11.8-12.1-11.8-12.1C105.5,26,105.7,24.7,106.7,23.2"/>
			<path class="st1" d="M91,86.5c2.6,2.6,22.2,23.6,30.4,32.2c1,1.1,1.4,2.2,1.4,3.7c0,0-0.2,11.5-0.3,14.2c0,1.7-1,1.9-2.7,1.4
				c-6.9-2.2-12.3-7.1-17.2-12c-8.7-9.6-16.1-19.7-17.3-36.4C84.6,78.1,85.9,81.3,91,86.5"/>
			<path class="st1" d="M87.1,70.8c0.8-5,1.9-10.6,3.3-15.5c0.5-1.8,1.4-0.9,2.4,0.1l29.4,30.4c0.7,0.8,1.3,1.8,1.2,2.9l-0.4,17.2
				c0,1.3,0.1,2.1-0.8,2.4c-0.7,0.3-2-0.6-2.8-1.5L88.7,75C87.6,73.7,86.8,72.5,87.1,70.8"/>
			<path class="st1" d="M94.1,45.3c2.3-4.6,3.8-7.4,6.4-11.8c0.9-1.6,1.1-2.1,2.9-0.2c7,7.3,12.4,12.8,19.4,20.1
				c0.7,0.8,1.3,1.5,1.2,2.6c-0.1,2.5-0.3,14.4-0.4,17.9c0,0.7,0.1,1.6-0.8,1.9c-0.5,0.2-1.1-0.1-1.7-0.5c-2.4-2-26.2-27-26.2-27
				c-0.6-0.6-1.2-1.3-1.1-2.1C94,45.8,94,45.6,94.1,45.3"/>
			<path class="st1" d="M149.2,23.2c-4.6-7-10.2-13.7-14.6-19.4c-0.7-1-2.9-3.5-3.2-3.7c-0.7-0.4-0.7,1.2-0.7,4.4l0.7,32.2
				c0.2,7.6,0.2,9,5.7,3c2.3-2.5,11.8-12.1,11.8-12.1C150.4,26,150.3,24.7,149.2,23.2"/>
			<path class="st1" d="M164.9,86.5c-2.6,2.6-22.2,23.6-30.4,32.2c-1,1.1-1.4,2.2-1.4,3.7c0,0,0.2,11.5,0.3,14.2
				c0,1.7,1,1.9,2.7,1.4c6.9-2.2,12.3-7.1,17.2-12c8.7-9.6,16.1-19.7,17.3-36.4C171.3,78.1,170,81.3,164.9,86.5"/>
			<path class="st1" d="M168.9,70.8c-0.8-5-1.9-10.6-3.3-15.5c-0.5-1.8-1.4-0.9-2.4,0.1l-29.4,30.4c-0.7,0.8-1.3,1.8-1.2,2.9
				l0.4,17.2c0,1.3-0.1,2.1,0.8,2.4c0.7,0.3,2-0.6,2.8-1.5L167.2,75C168.3,73.7,169.1,72.5,168.9,70.8"/>
			<path class="st1" d="M161.8,45.3c-2.3-4.6-3.8-7.4-6.4-11.8c-0.9-1.6-1.1-2.1-2.9-0.2c-7,7.3-12.4,12.8-19.4,20.1
				c-0.7,0.8-1.3,1.5-1.2,2.6c0.1,2.5,0.3,14.4,0.4,17.9c0,0.7-0.1,1.6,0.8,1.9c0.5,0.2,1.1-0.1,1.7-0.5c2.4-2,26.2-27,26.2-27
				c0.6-0.6,1.2-1.3,1.1-2.1C161.9,45.8,161.9,45.6,161.8,45.3"/>
		</g>
	</g>
</g>
</svg>
